<svg width="21" height="26" viewBox="0 0 21 26" fill="none" xmlns="http://www.w3.org/2000/svg">
<path d="M12.8396 1.61163H3.92295C3.33174 1.61163 2.76474 1.84649 2.34669 2.26454C1.92864 2.68259 1.69379 3.24958 1.69379 3.84079V21.6741C1.69379 22.2653 1.92864 22.8323 2.34669 23.2503C2.76474 23.6684 3.33174 23.9032 3.92295 23.9032H17.2979C17.8891 23.9032 18.4561 23.6684 18.8742 23.2503C19.2922 22.8323 19.5271 22.2653 19.5271 21.6741V8.29911L12.8396 1.61163Z" fill="#85FF00" stroke="#85FF00" stroke-width="2.22916" stroke-linecap="round" stroke-linejoin="round"/>
<path d="M12.8396 1.61163V8.29911H19.5271" fill="#85FF00"/>
<path d="M12.8396 1.61163V8.29911H19.5271" stroke="#85FF00" stroke-width="2.22916" stroke-linecap="round" stroke-linejoin="round"/>
<path d="M15.0682 13.8709H6.15155" stroke="#043565" stroke-width="2.22916" stroke-linecap="round" stroke-linejoin="round"/>
<path d="M15.0682 18.33H6.15155" stroke="#043565" stroke-width="2.22916" stroke-linecap="round" stroke-linejoin="round"/>
<path d="M10.609 9.41364H8.37998H6.151" fill="#85FF00"/>
<path d="M10.609 9.41364H8.37998H6.151" stroke="#043565" stroke-width="2.22916" stroke-linecap="round" stroke-linejoin="round"/>
</svg>
